<?xml version="1.0" standalone="no"?>
<!DOCTYPE svg PUBLIC "-//W3C//DTD SVG 20010904//EN"
 "http://www.w3.org/TR/2001/REC-SVG-20010904/DTD/svg10.dtd">
<svg version="1.0" xmlns="http://www.w3.org/2000/svg"
 width="768.000000pt" height="768.000000pt" viewBox="0 0 768.000000 768.000000"
 preserveAspectRatio="xMidYMid meet">
<metadata>
Created by potrace 1.11, written by Peter Selinger 2001-2013
</metadata>
<g transform="translate(0.000000,768.000000) scale(0.100000,-0.100000)"
fill="#000000" stroke="none">
<path d="M3600 7674 c-479 -41 -789 -111 -1170 -261 -887 -351 -1600 -1005
-2030 -1862 -201 -401 -327 -837 -382 -1316 -7 -64 -13 -230 -12 -400 0 -309
10 -434 60 -705 103 -558 341 -1106 681 -1565 847 -1144 2222 -1720 3633
-1524 630 87 1235 337 1752 721 302 224 588 514 811 820 369 507 611 1103 696
1718 127 911 -67 1819 -551 2587 -563 894 -1486 1526 -2513 1723 -234 44 -401
61 -670 64 -143 2 -280 2 -305 0z m-850 -1769 l0 -65 -115 0 -115 0 0 -360 0
-360 -80 0 -80 0 0 360 0 360 -120 0 -120 0 0 58 c0 32 3 62 7 65 3 4 145 7
315 7 l308 0 0 -65z m328 -362 l2 -423 -80 0 -80 0 0 425 0 426 78 -3 77 -3 3
-422z m792 361 l0 -66 -210 -288 c-115 -159 -210 -291 -210 -294 0 -3 96 -7
213 -8 l212 -3 3 -62 3 -63 -311 0 -310 0 0 63 0 63 214 295 214 294 -204 3
-204 2 0 65 0 65 295 0 295 0 0 -66z m768 -1 l3 -63 -211 0 -210 0 0 -110 0
-109 153 -3 152 -3 3 -62 3 -63 -156 0 -155 0 0 -120 0 -120 215 0 215 0 0
-65 0 -65 -295 0 -295 0 0 418 c0 230 3 422 7 425 4 4 133 6 287 5 l281 -3 3
-62z m369 30 c16 -21 110 -156 209 -301 l179 -263 3 301 2 300 75 0 75 0 0
-425 0 -425 -74 0 -74 0 -206 302 -206 301 0 -301 0 -302 -75 0 -75 0 0 425 0
425 69 0 c68 0 70 -1 98 -37z m-2581 -2185 l469 -761 5 759 5 759 215 0 215 0
0 -1140 0 -1140 -208 -3 -207 -2 -48 74 c-26 41 -238 386 -472 768 l-425 694
-3 -768 -2 -768 -215 0 -215 0 0 1145 0 1145 209 0 209 0 468 -762z m2629 562
l0 -195 -497 -3 -498 -2 0 -260 0 -260 365 0 365 0 0 -200 0 -200 -365 0 -365
0 0 -285 0 -285 520 0 520 0 0 -200 0 -200 -737 2 -738 3 -3 1130 c-1 622 0
1136 3 1143 3 10 152 12 717 10 l713 -3 0 -195z m1733 -2 l2 -198 -285 0 -285
0 0 -945 0 -945 -217 2 -218 3 -3 943 -2 942 -280 0 -280 0 0 200 0 200 783
-2 782 -3 3 -197z m-5503 -1868 l0 -215 -215 0 -215 0 -3 205 c-1 112 0 210 3
217 3 11 50 13 217 11 l213 -3 0 -215z"/>
</g>
</svg>
